<?xml version="1.0" encoding="utf-8"?>
<!-- Generator: Adobe Illustrator 23.0.3, SVG Export Plug-In . SVG Version: 6.00 Build 0)  -->
<svg version="1.1" id="Logo" xmlns="http://www.w3.org/2000/svg" xmlns:xlink="http://www.w3.org/1999/xlink" x="0px" y="0px"
	 viewBox="0 0 249 62" style="enable-background:new 0 0 249 62;" xml:space="preserve">
<style type="text/css">
	.st0{enable-background:new    ;}
	.st1{fill:#FFFFFF;}
	.st2{fill-rule:evenodd;clip-rule:evenodd;fill:#FFFFFF;}
</style>
<g class="st0">
	<path class="st1" d="M100.4,33.8c0.9,1.2,1.4,2.8,1.4,4.6c0,2.5-1,4.5-2.9,5.9c-1.9,1.4-4.8,2.1-8.5,2.1H75.9V17.1h13.7
		c3.4,0,6.1,0.7,8,2c1.9,1.4,2.8,3.2,2.8,5.6c0,1.5-0.3,2.7-1,3.9c-0.7,1.1-1.6,2-2.8,2.6C98.2,31.7,99.4,32.6,100.4,33.8z
		 M81.3,21.3v8.1H89c1.9,0,3.3-0.3,4.4-1c1-0.7,1.5-1.7,1.5-3c0-1.3-0.5-2.4-1.5-3c-1-0.7-2.5-1-4.4-1H81.3z M96.3,37.9
		c0-2.8-2.1-4.2-6.3-4.2h-8.8v8.5H90C94.2,42.1,96.3,40.7,96.3,37.9z"/>
	<path class="st1" d="M107.1,15.3h5.2v31.1h-5.2V15.3z"/>
	<path class="st1" d="M140.7,24v22.4h-5v-2.8c-0.8,1-1.9,1.8-3.1,2.3c-1.3,0.5-2.6,0.8-4,0.8c-3,0-5.3-0.8-7-2.5
		c-1.7-1.7-2.6-4.1-2.6-7.4V24h5.2v12.1c0,2,0.5,3.5,1.4,4.5c0.9,1,2.2,1.5,3.9,1.5c1.9,0,3.3-0.6,4.4-1.7c1.1-1.2,1.6-2.8,1.6-5V24
		H140.7z"/>
	<path class="st1" d="M168.4,36.9h-17.5c0.3,1.6,1.1,3,2.4,3.9c1.3,1,2.9,1.4,4.8,1.4c2.4,0,4.5-0.8,6-2.4l2.8,3.2
		c-1,1.2-2.3,2.1-3.8,2.7c-1.5,0.6-3.3,0.9-5.2,0.9c-2.4,0-4.6-0.5-6.5-1.5c-1.9-1-3.3-2.3-4.3-4.1c-1-1.7-1.5-3.7-1.5-5.9
		c0-2.2,0.5-4.1,1.5-5.9c1-1.7,2.4-3.1,4.1-4.1c1.8-1,3.7-1.5,5.9-1.5c2.2,0,4.1,0.5,5.8,1.4c1.7,1,3,2.3,4,4.1
		c1,1.7,1.4,3.8,1.4,6.1C168.4,35.7,168.4,36.2,168.4,36.9z M153,29.4c-1.2,1-1.9,2.3-2.1,4h12.6c-0.2-1.6-0.9-2.9-2-3.9
		c-1.1-1-2.6-1.5-4.3-1.5C155.5,28,154.1,28.5,153,29.4z"/>
	<path class="st1" d="M193,46.4l-6-8.6c-0.3,0-0.6,0-1.1,0h-6.6v8.5h-5.4V17.1h12c2.5,0,4.7,0.4,6.6,1.3c1.9,0.8,3.3,2,4.3,3.6
		c1,1.6,1.5,3.4,1.5,5.6c0,2.2-0.5,4.1-1.6,5.7s-2.6,2.8-4.6,3.6l6.7,9.6H193z M191.1,23.2c-1.2-1-3-1.5-5.4-1.5h-6.3v11.7h6.3
		c2.4,0,4.2-0.5,5.4-1.5c1.2-1,1.8-2.5,1.8-4.3C192.9,25.6,192.3,24.2,191.1,23.2z"/>
	<path class="st1" d="M224.7,36.9h-17.5c0.3,1.6,1.1,3,2.4,3.9c1.3,1,2.9,1.4,4.8,1.4c2.4,0,4.5-0.8,6-2.4l2.8,3.2
		c-1,1.2-2.3,2.1-3.8,2.7c-1.5,0.6-3.3,0.9-5.2,0.9c-2.4,0-4.6-0.5-6.5-1.5c-1.9-1-3.3-2.3-4.3-4.1c-1-1.7-1.5-3.7-1.5-5.9
		c0-2.2,0.5-4.1,1.5-5.9c1-1.7,2.4-3.1,4.1-4.1c1.8-1,3.7-1.5,5.9-1.5c2.2,0,4.1,0.5,5.8,1.4c1.7,1,3,2.3,4,4.1
		c1,1.7,1.4,3.8,1.4,6.1C224.8,35.7,224.8,36.2,224.7,36.9z M209.3,29.4c-1.2,1-1.9,2.3-2.1,4h12.6c-0.2-1.6-0.9-2.9-2-3.9
		c-1.1-1-2.6-1.5-4.3-1.5C211.9,28,210.5,28.5,209.3,29.4z"/>
	<path class="st1" d="M243.4,46.4l-5.7-7.8l-5.8,7.8h-5.8l8.7-11.4l-8.3-11h5.8l5.5,7.3l5.5-7.3h5.6L240.5,35l8.7,11.4H243.4z"/>
</g>
<path id="Shape" class="st2" d="M44.1,0.7c6.5,2.1,10.3,8.2,8.5,13.7L39.8,55.1c-1.7,5.5-8.4,8.3-14.8,6.2s-10.3-8.2-8.5-13.7
	L29.3,6.9C31,1.4,37.6-1.4,44.1,0.7z M62.5,18.9c4.2,1.4,6.7,5.3,5.6,8.9l-8.4,26.5c-1.1,3.6-5.4,5.4-9.6,4s-6.7-5.3-5.6-8.9
	l8.4-26.5C54,19.4,58.3,17.6,62.5,18.9z M18.3,6c4.2,1.4,6.7,5.3,5.6,8.9l-8.3,26.5c-1.1,3.6-5.4,5.4-9.6,4s-6.7-5.3-5.6-8.9L8.6,10
	C9.8,6.5,14.1,4.7,18.3,6z"/>
</svg>
