<svg xmlns="http://www.w3.org/2000/svg" viewBox="0 0 249 62"><path d="M100.4 33.8c.9 1.2 1.4 2.8 1.4 4.6 0 2.5-1 4.5-2.9 5.9-1.9 1.4-4.8 2.1-8.5 2.1H75.9V17.1h13.7c3.4 0 6.1.7 8 2 1.9 1.4 2.8 3.2 2.8 5.6 0 1.5-.3 2.7-1 3.9-.7 1.1-1.6 2-2.8 2.6 1.6.5 2.8 1.4 3.8 2.6zM81.3 21.3v8.1H89c1.9 0 3.3-.3 4.4-1 1-.7 1.5-1.7 1.5-3s-.5-2.4-1.5-3c-1-.7-2.5-1-4.4-1h-7.7zm15 16.6c0-2.8-2.1-4.2-6.3-4.2h-8.8v8.5H90c4.2-.1 6.3-1.5 6.3-4.3zm10.8-22.6h5.2v31.1h-5.2V15.3zm33.6 8.7v22.4h-5v-2.8c-.8 1-1.9 1.8-3.1 2.3-1.3.5-2.6.8-4 .8-3 0-5.3-.8-7-2.5-1.7-1.7-2.6-4.1-2.6-7.4V24h5.2v12.1c0 2 .5 3.5 1.4 4.5.9 1 2.2 1.5 3.9 1.5 1.9 0 3.3-.6 4.4-1.7 1.1-1.2 1.6-2.8 1.6-5V24h5.2zm27.7 12.9h-17.5c.3 1.6 1.1 3 2.4 3.9 1.3 1 2.9 1.4 4.8 1.4 2.4 0 4.5-.8 6-2.4l2.8 3.2c-1 1.2-2.3 2.1-3.8 2.7-1.5.6-3.3.9-5.2.9-2.4 0-4.6-.5-6.5-1.5-1.9-1-3.3-2.3-4.3-4.1-1-1.7-1.5-3.7-1.5-5.9s.5-4.1 1.5-5.9c1-1.7 2.4-3.1 4.1-4.1 1.8-1 3.7-1.5 5.9-1.5s4.1.5 5.8 1.4c1.7 1 3 2.3 4 4.1 1 1.7 1.4 3.8 1.4 6.1.1.5.1 1 .1 1.7zM153 29.4c-1.2 1-1.9 2.3-2.1 4h12.6c-.2-1.6-.9-2.9-2-3.9s-2.6-1.5-4.3-1.5c-1.7 0-3.1.5-4.2 1.4zm40 17l-6-8.6h-7.7v8.5h-5.4V17.1h12c2.5 0 4.7.4 6.6 1.3 1.9.8 3.3 2 4.3 3.6s1.5 3.4 1.5 5.6c0 2.2-.5 4.1-1.6 5.7s-2.6 2.8-4.6 3.6l6.7 9.6H193zm-1.9-23.2c-1.2-1-3-1.5-5.4-1.5h-6.3v11.7h6.3c2.4 0 4.2-.5 5.4-1.5 1.2-1 1.8-2.5 1.8-4.3 0-2-.6-3.4-1.8-4.4zm33.6 13.7h-17.5c.3 1.6 1.1 3 2.4 3.9 1.3 1 2.9 1.4 4.8 1.4 2.4 0 4.5-.8 6-2.4l2.8 3.2c-1 1.2-2.3 2.1-3.8 2.7-1.5.6-3.3.9-5.2.9-2.4 0-4.6-.5-6.5-1.5-1.9-1-3.3-2.3-4.3-4.1-1-1.7-1.5-3.7-1.5-5.9s.5-4.1 1.5-5.9c1-1.7 2.4-3.1 4.1-4.1 1.8-1 3.7-1.5 5.9-1.5s4.1.5 5.8 1.4c1.7 1 3 2.3 4 4.1 1 1.7 1.4 3.8 1.4 6.1.2.5.2 1 .1 1.7zm-15.4-7.5c-1.2 1-1.9 2.3-2.1 4h12.6c-.2-1.6-.9-2.9-2-3.9s-2.6-1.5-4.3-1.5c-1.6 0-3 .5-4.2 1.4zm34.1 17l-5.7-7.8-5.8 7.8h-5.8l8.7-11.4-8.3-11h5.8l5.5 7.3 5.5-7.3h5.6l-8.4 11 8.7 11.4h-5.8z" fill="#fff"/><path d="M44.1.7c6.5 2.1 10.3 8.2 8.5 13.7L39.8 55.1c-1.7 5.5-8.4 8.3-14.8 6.2s-10.3-8.2-8.5-13.7L29.3 6.9C31 1.4 37.6-1.4 44.1.7zm18.4 18.2c4.2 1.4 6.7 5.3 5.6 8.9l-8.4 26.5c-1.1 3.6-5.4 5.4-9.6 4s-6.7-5.3-5.6-8.9l8.4-26.5c1.1-3.5 5.4-5.3 9.6-4zM18.3 6c4.2 1.4 6.7 5.3 5.6 8.9l-8.3 26.5c-1.1 3.6-5.4 5.4-9.6 4S-.7 40.1.4 36.5L8.6 10c1.2-3.5 5.5-5.3 9.7-4z" fill-rule="evenodd" clip-rule="evenodd" fill="#fff"/></svg>